<svg version="1.1" id="Layer_1" xmlns="http://www.w3.org/2000/svg" xmlns:xlink="http://www.w3.org/1999/xlink" x="0px" y="0px"
	 width="100%" viewBox="0 0 930 900" enable-background="new 0 0 930 900" xml:space="preserve">
<path fill="#FEFEFE" opacity="1.000000" stroke="none" 
	d="
M1.000000,866.000000 
	C1.000000,864.933167 1.000000,863.866272 1.308703,862.482910 
	C1.411606,861.444275 1.205806,860.722168 1.000003,860.000000 
	C1.000000,587.637329 1.000000,315.274597 1.386744,42.454811 
	C2.141949,38.987167 2.510410,35.976608 2.848241,32.635883 
	C2.983311,31.901564 3.149012,31.497416 3.680748,31.031437 
	C4.465790,29.085390 4.884795,27.201170 5.312652,25.057026 
	C5.508082,24.513662 5.694662,24.230223 6.265476,23.953793 
	C7.298087,22.126106 7.946463,20.291412 8.601315,18.291279 
	C8.607788,18.125841 8.887682,17.948902 9.280632,17.954762 
	C9.957531,17.108690 10.241481,16.256760 10.537194,15.243757 
	C10.548959,15.082687 10.824494,14.914143 11.209249,14.936113 
	C11.947699,14.141208 12.301394,13.324331 12.695770,12.244486 
	C13.095735,11.617173 13.455020,11.252830 14.198566,10.935236 
	C14.956356,10.173736 15.329886,9.365484 15.763607,8.345976 
	C15.993505,7.864741 16.237480,7.719800 16.930138,7.799929 
	C17.869087,6.932281 18.433630,5.964599 19.098961,4.717180 
	C19.815269,3.967121 20.430786,3.496799 21.394581,3.102627 
	C22.495243,2.452518 23.247622,1.726259 24.000000,1.000000 
	C318.029388,1.000000 612.058777,1.000000 906.603760,1.330921 
	C909.153931,3.326936 911.188416,4.992029 913.392273,6.940874 
	C914.605042,8.385195 915.648499,9.545765 916.568237,11.034310 
	C926.463013,25.226635 928.812744,40.858440 928.799500,57.661594 
	C928.593445,319.763580 928.656799,581.865784 928.643433,843.967957 
	C928.643188,849.298401 929.151855,854.753357 928.208069,859.928650 
	C926.939392,866.885071 925.561096,874.205017 922.268005,880.310852 
	C918.239929,887.779541 912.180847,894.152954 907.000000,901.000000 
	C612.637329,901.000000 318.274597,901.000000 23.404238,900.666382 
	C13.011807,891.169312 5.898682,880.323547 2.612745,867.117981 
	C2.494071,866.641052 1.556126,866.368042 1.000000,866.000000 
M124.002609,196.238159 
	C122.387390,195.019409 120.772171,193.800659 118.932632,191.907486 
	C118.295395,191.719177 117.658150,191.530884 117.020912,191.342575 
	C116.983406,192.219650 116.945900,193.096725 116.634087,194.741577 
	C116.606369,196.406036 116.554382,198.070480 116.554359,199.734940 
	C116.551537,400.932190 116.552467,602.129395 116.554047,803.326660 
	C116.554077,807.323608 116.480972,811.323792 116.635178,815.314941 
	C116.668419,816.175476 117.537842,817.003662 118.935059,818.059448 
	C223.798126,818.063354 328.661194,818.083862 433.524261,818.042786 
	C442.997314,818.039062 452.470245,817.638428 462.754578,817.680786 
	C465.164429,817.437317 467.574249,817.193848 470.903564,817.127930 
	C475.249359,816.805847 479.595123,816.483826 484.433380,816.427246 
	C484.955658,816.285034 485.477936,816.142822 486.892700,816.156982 
	C494.848999,815.422180 502.820923,814.825745 510.758972,813.929443 
	C553.131409,809.145081 594.502930,800.210876 633.971191,783.638916 
	C694.127869,758.380066 741.276489,718.313232 773.145325,660.952820 
	C799.770325,613.030884 812.050720,560.997864 816.990967,506.915161 
	C819.951965,474.500366 820.173767,442.036255 818.083374,409.549225 
	C815.504944,369.476898 809.079956,330.123871 795.871033,292.087677 
	C780.517761,247.876953 757.335632,208.479172 723.254395,175.972458 
	C691.259399,145.455704 653.646057,124.317917 612.035156,109.998672 
	C562.435364,92.930313 511.083344,85.079628 458.927795,84.489258 
	C367.111328,83.449951 275.276794,84.007446 183.449829,83.923523 
	C182.443573,83.922600 181.436996,84.287270 180.251007,84.515892 
	C180.686935,85.231476 180.798859,85.577774 181.034607,85.779152 
	C212.790466,112.906273 244.537949,140.043350 276.380585,167.068329 
	C277.721222,168.206146 279.948608,168.791794 281.766724,168.800171 
	C307.431580,168.918610 333.097656,168.967041 358.761444,168.771591 
	C361.029541,168.754318 363.833649,167.465500 365.458801,165.838379 
	C380.398376,150.880753 395.033173,135.617874 410.039612,120.728966 
	C412.157471,118.627686 415.762543,117.042542 418.737366,116.942223 
	C444.049469,116.088585 469.375031,115.632011 494.696686,115.064278 
	C496.361725,115.026947 498.043427,114.907234 499.691162,115.078239 
	C504.725159,115.600647 508.272552,119.611580 508.161499,124.496956 
	C508.052643,129.284821 504.714569,132.833389 499.697601,133.325562 
	C497.546997,133.536560 495.371033,133.502136 493.205963,133.551056 
	C470.727722,134.059006 448.247345,134.493057 425.774261,135.171387 
	C423.543915,135.238708 420.801941,136.217834 419.243073,137.741364 
	C409.843475,146.928055 400.710358,156.387772 391.521698,165.789001 
	C390.815369,166.511658 390.367889,167.487335 389.291473,169.114044 
	C457.737213,169.114044 525.282715,169.114044 592.808533,169.114044 
	C592.808533,174.052399 592.808533,178.464920 592.808533,183.399353 
	C548.624939,183.399353 504.747253,183.399353 459.871643,183.399353 
	C461.639862,185.943832 462.820221,187.681717 464.040131,189.391342 
	C471.386139,199.685974 478.942169,209.840256 485.951141,220.359192 
	C487.690765,222.969986 488.877716,227.090240 488.097504,229.899780 
	C487.396271,232.424728 483.950592,234.958328 481.167450,235.950287 
	C477.175476,237.373123 473.888702,234.975250 471.452240,231.551712 
	C460.739685,216.499100 450.049194,201.429047 439.114014,186.539108 
	C437.897827,184.883102 435.177032,183.415817 433.147949,183.407883 
	C388.984192,183.235046 344.819611,183.279877 300.655182,183.296265 
	C299.400208,183.296738 298.145294,183.444077 295.993561,183.579285 
	C297.649384,185.145950 298.639526,186.169708 299.717834,187.090256 
	C323.512299,207.403717 347.812164,227.163605 370.888458,248.261948 
	C380.898895,257.414337 390.979736,260.853271 404.272766,260.286102 
	C426.885315,259.321228 449.618103,259.248657 472.020355,263.710968 
	C507.596588,270.797394 536.783691,287.590302 555.657349,319.599579 
	C571.130920,345.842316 576.838440,374.848877 577.728394,404.772430 
	C578.570312,433.079987 578.176880,461.428589 578.078979,489.758270 
	C578.013733,508.650909 575.637695,527.302551 570.762451,545.583496 
	C562.978638,574.770508 548.701355,599.743225 523.403259,617.344971 
	C502.014618,632.226501 477.802856,639.655090 452.158783,640.710632 
	C419.383667,642.059753 386.534332,641.607422 353.716736,641.903564 
	C353.281616,641.907532 352.843231,641.546997 352.242065,641.284912 
	C352.176117,640.136597 352.054321,638.997375 352.053650,637.858032 
	C352.042419,618.359009 352.046448,598.859985 352.046570,579.360962 
	C352.046906,518.364014 352.012177,457.367035 352.126312,396.370300 
	C352.133850,392.356323 351.065735,389.647675 347.855743,387.068726 
	C339.431702,380.300598 331.354706,373.100739 323.131927,366.081757 
	C270.848541,321.452667 218.579712,276.806488 166.267258,232.211502 
	C152.353195,220.350143 138.303223,208.648209 124.002609,196.238159 
z"/>
<path fill="#676767" opacity="1.000000" stroke="none" 
	d="
M907.399963,901.000000 
	C912.180847,894.152954 918.239929,887.779541 922.268005,880.310852 
	C925.561096,874.205017 926.939392,866.885071 928.208069,859.928650 
	C929.151855,854.753357 928.643188,849.298401 928.643433,843.967957 
	C928.656799,581.865784 928.593445,319.763580 928.799500,57.661594 
	C928.812744,40.858440 926.463013,25.226635 916.896484,11.043201 
	C923.823730,17.746906 927.006958,26.335175 929.210510,35.420151 
	C929.440613,36.368973 930.386292,37.144222 931.000000,38.000000 
	C931.000000,314.687561 931.000000,591.375122 930.625000,868.390808 
	C929.467896,870.112061 928.684692,871.504517 927.903931,872.898499 
	C923.871094,880.098633 919.909180,887.340027 915.765869,894.476135 
	C914.421082,896.792297 912.602112,898.833191 911.000000,901.000000 
	C909.933289,901.000000 908.866638,901.000000 907.399963,901.000000 
z"/>
<path fill="#040404" opacity="1.000000" stroke="none" 
	d="
M931.000000,37.531342 
	C930.386292,37.144222 929.440613,36.368973 929.210510,35.420151 
	C927.006958,26.335175 923.823730,17.746906 917.020142,10.715225 
	C915.648499,9.545765 914.605042,8.385195 913.443726,6.584434 
	C912.550476,4.296161 911.775269,2.648080 911.000000,0.999999 
	C917.615051,1.000000 924.230164,1.000000 931.000000,1.000000 
	C931.000000,13.020530 931.000000,25.041607 931.000000,37.531342 
z"/>
<path fill="#0D0D0D" opacity="1.000000" stroke="none" 
	d="
M13.814305,10.888486 
	C13.455020,11.252830 13.095735,11.617173 12.344448,12.280948 
	C11.576463,13.358299 11.200479,14.136221 10.824493,14.914143 
	C10.824494,14.914143 10.548959,15.082687 10.194082,15.304733 
	C9.522030,16.334154 9.204856,17.141527 8.887682,17.948902 
	C8.887682,17.948902 8.607788,18.125841 8.249266,18.382034 
	C7.220910,20.407745 6.551076,22.177263 5.881242,23.946783 
	C5.694662,24.230223 5.508082,24.513662 4.992468,25.219620 
	C4.213859,27.459181 3.764286,29.276222 3.314712,31.093266 
	C3.149012,31.497416 2.983311,31.901564 2.516852,32.630730 
	C1.810729,32.970497 1.405364,32.985249 1.000000,33.000000 
	C1.000000,22.422289 1.000000,11.844579 1.000000,1.000000 
	C7.685037,1.000000 14.373607,1.000000 21.352341,1.237287 
	C21.443771,1.991874 21.245035,2.509175 21.046301,3.026476 
	C20.430786,3.496799 19.815269,3.967121 18.754557,4.695122 
	C17.724815,5.868498 17.140272,6.784196 16.555727,7.699894 
	C16.237480,7.719800 15.993505,7.864741 15.420053,8.382893 
	C14.615642,9.383541 14.214973,10.136013 13.814305,10.888486 
z"/>
<path fill="#030303" opacity="1.000000" stroke="none" 
	d="
M911.469055,901.000000 
	C912.602112,898.833191 914.421082,896.792297 915.765869,894.476135 
	C919.909180,887.340027 923.871094,880.098633 927.903931,872.898499 
	C928.684692,871.504517 929.467896,870.112061 930.625000,868.859497 
	C931.000000,879.575928 931.000000,890.151855 931.000000,901.000000 
	C924.648621,901.000000 918.293335,901.000000 911.469055,901.000000 
z"/>
<path fill="#050505" opacity="1.000000" stroke="none" 
	d="
M18.999990,901.000000 
	C13.058964,901.000000 7.117929,901.000000 1.000000,901.000000 
	C1.000000,892.313049 1.000000,883.625183 1.352068,874.284912 
	C2.058239,873.954956 2.576383,874.209351 2.742405,874.609741 
	C6.427711,883.498474 10.908494,891.854736 18.131104,898.476746 
	C18.707453,899.005066 18.723539,900.144531 18.999990,901.000000 
z"/>
<path fill="#717171" opacity="1.000000" stroke="none" 
	d="
M19.399986,901.000000 
	C18.723539,900.144531 18.707453,899.005066 18.131104,898.476746 
	C10.908494,891.854736 6.427711,883.498474 2.742405,874.609741 
	C2.576383,874.209351 2.058239,873.954956 1.352068,873.816284 
	C1.000000,871.629456 1.000000,869.258850 1.000000,866.444153 
	C1.556126,866.368042 2.494071,866.641052 2.612745,867.117981 
	C5.898682,880.323547 13.011807,891.169312 22.948288,900.666382 
	C21.933331,901.000000 20.866661,901.000000 19.399986,901.000000 
z"/>
<path fill="#C4C4C4" opacity="1.000000" stroke="none" 
	d="
M1.000000,33.449982 
	C1.405364,32.985249 1.810729,32.970497 2.547482,32.960899 
	C2.510410,35.976608 2.141949,38.987167 1.386744,41.998863 
	C1.000000,39.299988 1.000000,36.599972 1.000000,33.449982 
z"/>
<path fill="#676767" opacity="1.000000" stroke="none" 
	d="
M910.600037,0.999999 
	C911.775269,2.648080 912.550476,4.296161 913.274292,6.300683 
	C911.188416,4.992029 909.153931,3.326936 907.059692,1.330921 
	C908.066711,1.000000 909.133362,1.000000 910.600037,0.999999 
z"/>
<path fill="#C4C4C4" opacity="1.000000" stroke="none" 
	d="
M21.394581,3.102626 
	C21.245035,2.509175 21.443771,1.991874 21.821253,1.237287 
	C22.444445,1.000000 22.888889,1.000000 23.666668,1.000000 
	C23.247622,1.726259 22.495243,2.452518 21.394581,3.102626 
z"/>
<path fill="#C4C4C4" opacity="1.000000" stroke="none" 
	d="
M1.000003,860.333313 
	C1.205806,860.722168 1.411606,861.444275 1.308703,862.083252 
	C1.000000,861.555542 1.000000,861.111084 1.000003,860.333313 
z"/>
<path fill="#010101" opacity="1.000000" stroke="none" 
	d="
M483.940918,816.161743 
	C479.595123,816.483826 475.249359,816.805847 470.186157,816.756592 
	C466.960236,816.730835 464.451721,817.076477 461.943237,817.422119 
	C452.470245,817.638428 442.997314,818.039062 433.524261,818.042786 
	C328.661194,818.083862 223.798126,818.063354 118.485764,817.494446 
	C118.016243,813.430725 117.978340,809.932068 117.978302,806.433350 
	C117.976166,604.494019 117.980606,402.554749 117.933578,200.615463 
	C117.933060,198.401489 117.264893,196.187683 116.908394,193.973801 
	C116.945900,193.096725 116.983406,192.219650 117.020912,191.342575 
	C117.658150,191.530884 118.295395,191.719177 118.993500,192.738800 
	C119.040634,194.069794 119.014862,194.569473 119.014847,195.069138 
	C119.009148,399.661011 119.004784,604.252930 119.013893,808.844788 
	C119.013939,809.842346 119.205742,810.839966 119.307991,811.837524 
	C119.538254,811.824463 119.768517,811.811340 119.998779,811.798218 
	C119.998779,809.831238 119.998779,807.864197 119.998779,805.897217 
	C119.998825,605.970276 119.998833,406.043335 119.998970,206.116379 
	C119.998970,204.450317 120.164497,202.764435 119.966454,201.122330 
	C119.553329,197.696838 121.267189,196.651489 124.315643,196.873062 
	C138.303223,208.648209 152.353195,220.350143 166.267258,232.211502 
	C218.579712,276.806488 270.848541,321.452667 323.131927,366.081757 
	C331.354706,373.100739 339.431702,380.300598 347.855743,387.068726 
	C351.065735,389.647675 352.133850,392.356323 352.126312,396.370300 
	C352.012177,457.367035 352.046906,518.364014 352.046570,579.360962 
	C352.046448,598.859985 352.042419,618.359009 352.053650,637.858032 
	C352.054321,638.997375 352.176117,640.136597 352.242065,641.284912 
	C352.843231,641.546997 353.281616,641.907532 353.716736,641.903564 
	C386.534332,641.607422 419.383667,642.059753 452.158783,640.710632 
	C477.802856,639.655090 502.014618,632.226501 523.403259,617.344971 
	C548.701355,599.743225 562.978638,574.770508 570.762451,545.583496 
	C575.637695,527.302551 578.013733,508.650909 578.078979,489.758270 
	C578.176880,461.428589 578.570312,433.079987 577.728394,404.772430 
	C576.838440,374.848877 571.130920,345.842316 555.657349,319.599579 
	C536.783691,287.590302 507.596588,270.797394 472.020355,263.710968 
	C449.618103,259.248657 426.885315,259.321228 404.272766,260.286102 
	C390.979736,260.853271 380.898895,257.414337 370.888458,248.261948 
	C347.812164,227.163605 323.512299,207.403717 299.717834,187.090256 
	C298.639526,186.169708 297.649384,185.145950 295.993561,183.579285 
	C298.145294,183.444077 299.400208,183.296738 300.655182,183.296265 
	C344.819611,183.279877 388.984192,183.235046 433.147949,183.407883 
	C435.177032,183.415817 437.897827,184.883102 439.114014,186.539108 
	C450.049194,201.429047 460.739685,216.499100 471.452240,231.551712 
	C473.888702,234.975250 477.175476,237.373123 481.167450,235.950287 
	C483.950592,234.958328 487.396271,232.424728 488.097504,229.899780 
	C488.877716,227.090240 487.690765,222.969986 485.951141,220.359192 
	C478.942169,209.840256 471.386139,199.685974 464.040131,189.391342 
	C462.820221,187.681717 461.639862,185.943832 459.871643,183.399353 
	C504.747253,183.399353 548.624939,183.399353 592.808533,183.399353 
	C592.808533,178.464920 592.808533,174.052399 592.808533,169.114044 
	C525.282715,169.114044 457.737213,169.114044 389.291473,169.114044 
	C390.367889,167.487335 390.815369,166.511658 391.521698,165.789001 
	C400.710358,156.387772 409.843475,146.928055 419.243073,137.741364 
	C420.801941,136.217834 423.543915,135.238708 425.774261,135.171387 
	C448.247345,134.493057 470.727722,134.059006 493.205963,133.551056 
	C495.371033,133.502136 497.546997,133.536560 499.697601,133.325562 
	C504.714569,132.833389 508.052643,129.284821 508.161499,124.496956 
	C508.272552,119.611580 504.725159,115.600647 499.691162,115.078239 
	C498.043427,114.907234 496.361725,115.026947 494.696686,115.064278 
	C469.375031,115.632011 444.049469,116.088585 418.737366,116.942223 
	C415.762543,117.042542 412.157471,118.627686 410.039612,120.728966 
	C395.033173,135.617874 380.398376,150.880753 365.458801,165.838379 
	C363.833649,167.465500 361.029541,168.754318 358.761444,168.771591 
	C333.097656,168.967041 307.431580,168.918610 281.766724,168.800171 
	C279.948608,168.791794 277.721222,168.206146 276.380585,167.068329 
	C244.537949,140.043350 212.790466,112.906273 181.034607,85.779152 
	C180.798859,85.577774 180.686935,85.231476 180.251007,84.515892 
	C181.436996,84.287270 182.443573,83.922600 183.449829,83.923523 
	C275.276794,84.007446 367.111328,83.449951 458.927795,84.489258 
	C511.083344,85.079628 562.435364,92.930313 612.035156,109.998672 
	C653.646057,124.317917 691.259399,145.455704 723.254395,175.972458 
	C757.335632,208.479172 780.517761,247.876953 795.871033,292.087677 
	C809.079956,330.123871 815.504944,369.476898 818.083374,409.549225 
	C820.173767,442.036255 819.951965,474.500366 816.990967,506.915161 
	C812.050720,560.997864 799.770325,613.030884 773.145325,660.952820 
	C741.276489,718.313232 694.127869,758.380066 633.971191,783.638916 
	C594.502930,800.210876 553.131409,809.145081 510.758972,813.929443 
	C502.820923,814.825745 494.848999,815.422180 486.336273,815.863037 
	C485.166870,815.766663 484.553894,815.964233 483.940918,816.161743 
z"/>
<path fill="#1A1A1A" opacity="1.000000" stroke="none" 
	d="
M116.771240,194.357697 
	C117.264893,196.187683 117.933060,198.401489 117.933578,200.615463 
	C117.980606,402.554749 117.976166,604.494019 117.978302,806.433350 
	C117.978340,809.932068 118.016243,813.430725 118.029282,817.388062 
	C117.537842,817.003662 116.668419,816.175476 116.635178,815.314941 
	C116.480972,811.323792 116.554077,807.323608 116.554047,803.326660 
	C116.552467,602.129395 116.551537,400.932190 116.554359,199.734940 
	C116.554382,198.070480 116.606369,196.406036 116.771240,194.357697 
z"/>
<path fill="#0C0C0C" opacity="1.000000" stroke="none" 
	d="
M124.159134,196.555603 
	C121.267189,196.651489 119.553329,197.696838 119.966454,201.122330 
	C120.164497,202.764435 119.998970,204.450317 119.998970,206.116379 
	C119.998833,406.043335 119.998825,605.970276 119.998779,805.897217 
	C119.998779,807.864197 119.998779,809.831238 119.998779,811.798218 
	C119.768517,811.811340 119.538254,811.824463 119.307991,811.837524 
	C119.205742,810.839966 119.013939,809.842346 119.013893,808.844788 
	C119.004784,604.252930 119.009148,399.661011 119.014847,195.069138 
	C119.014862,194.569473 119.040634,194.069794 119.105667,193.076019 
	C120.772171,193.800659 122.387390,195.019409 124.159134,196.555603 
z"/>
<path fill="#1A1A1A" opacity="1.000000" stroke="none" 
	d="
M462.348907,817.551453 
	C464.451721,817.076477 466.960236,816.730835 469.726410,816.667847 
	C467.574249,817.193848 465.164429,817.437317 462.348907,817.551453 
z"/>
<path fill="#C4C4C4" opacity="1.000000" stroke="none" 
	d="
M6.265476,23.953793 
	C6.551076,22.177263 7.220910,20.407745 8.242792,18.547472 
	C7.946463,20.291412 7.298087,22.126106 6.265476,23.953793 
z"/>
<path fill="#C4C4C4" opacity="1.000000" stroke="none" 
	d="
M3.680748,31.031437 
	C3.764286,29.276222 4.213859,27.459181 4.983616,25.479544 
	C4.884795,27.201170 4.465790,29.085390 3.680748,31.031437 
z"/>
<path fill="#C4C4C4" opacity="1.000000" stroke="none" 
	d="
M16.930138,7.799929 
	C17.140272,6.784196 17.724815,5.868498 18.653767,4.974858 
	C18.433630,5.964599 17.869087,6.932281 16.930138,7.799929 
z"/>
<path fill="#C4C4C4" opacity="1.000000" stroke="none" 
	d="
M9.280632,17.954762 
	C9.204856,17.141527 9.522030,16.334154 10.182318,15.465803 
	C10.241481,16.256760 9.957531,17.108690 9.280632,17.954762 
z"/>
<path fill="#C4C4C4" opacity="1.000000" stroke="none" 
	d="
M11.209248,14.936113 
	C11.200479,14.136221 11.576463,13.358299 12.303768,12.543917 
	C12.301394,13.324331 11.947699,14.141208 11.209248,14.936113 
z"/>
<path fill="#C4C4C4" opacity="1.000000" stroke="none" 
	d="
M14.198566,10.935236 
	C14.214973,10.136013 14.615642,9.383541 15.359863,8.594151 
	C15.329886,9.365484 14.956356,10.173736 14.198566,10.935236 
z"/>
<path fill="#1A1A1A" opacity="1.000000" stroke="none" 
	d="
M484.187134,816.294495 
	C484.553894,815.964233 485.166870,815.766663 485.890015,815.784790 
	C485.477936,816.142822 484.955658,816.285034 484.187134,816.294495 
z"/>
</svg>