<?xml version="1.0" encoding="UTF-8"?>
<svg version="1.1" xmlns="http://www.w3.org/2000/svg" width="234" height="162">
<path d="M0 0 C1 1 1 1 1.3125 4.3125 C2.09120159 8.48917216 2.96529534 9.23306339 6 12 C6.45246094 12.92554688 6.90492187 13.85109375 7.37109375 14.8046875 C11.15716274 22.23155665 18.05408342 29.92527576 26 33 C28.8949521 32.97861264 28.8949521 32.97861264 31 32 C31 31.34 31 30.68 31 30 C29.6148965 28.63231919 28.16593125 27.32871623 26.6875 26.0625 C25.12101173 24.71294892 23.55822999 23.35907797 22 22 C21.46439453 21.5560791 20.92878906 21.1121582 20.37695312 20.65478516 C18.58611218 18.50260077 18.6512407 17.32171191 18.70703125 14.55078125 C18.71669922 13.70322266 18.72636719 12.85566406 18.73632812 11.98242188 C18.76146484 11.10134766 18.78660156 10.22027344 18.8125 9.3125 C18.83280273 7.97348633 18.83280273 7.97348633 18.85351562 6.60742188 C18.88885921 4.40433834 18.93819507 2.20247418 19 0 C20.65 0 22.3 0 24 0 C24.2475 0.61875 24.495 1.2375 24.75 1.875 C25.80033644 4.11497366 25.80033644 4.11497366 27.83203125 4.87109375 C31.23842444 6.64487327 33.38795084 9.56365791 35.90234375 12.41796875 C37.91810287 14.28985094 37.91810287 14.28985094 40.66796875 13.8671875 C43.1572096 13.20103523 43.1572096 13.20103523 44.375 10.9375 C44.91125 10.298125 45.4475 9.65875 46 9 C49.6875 8.75 49.6875 8.75 53 9 C53.33 7.68 53.66 6.36 54 5 C58.83745102 3.45201567 63.36659205 3.16591934 67.9375 5.5 C68.618125 5.995 69.29875 6.49 70 7 C69.67 8.32 69.34 9.64 69 11 C64.20699867 12.39151652 59.84864218 11.68662689 55 11 C55 11.99 55 12.98 55 14 C56.051875 14.37125 56.051875 14.37125 57.125 14.75 C60.37002459 16.16088026 63.10316737 17.97895398 66 20 C65.125 24.875 65.125 24.875 64 26 C57.72111847 26.47387785 57.72111847 26.47387785 54.8125 24.5625 C54.214375 24.046875 53.61625 23.53125 53 23 C50.85266073 22.29485154 50.85266073 22.29485154 49 22 C48.65490872 25.00795167 48.65490872 25.00795167 50.53125 26.60546875 C51.1809375 27.12753906 51.830625 27.64960937 52.5 28.1875 C53.47453125 28.98220703 53.47453125 28.98220703 54.46875 29.79296875 C55.22671875 30.39044922 55.22671875 30.39044922 56 31 C55 34 55 34 52.34765625 35.53515625 C51.26355469 36.03917969 50.17945313 36.54320312 49.0625 37.0625 C44.68785475 39.03982408 44.68785475 39.03982408 41 42 C42.485 42.495 42.485 42.495 44 43 C45.70533217 46.32091002 46 48.18492784 46 52 C55.24 52 64.48 52 74 52 C74.33 53.65 74.66 55.3 75 57 C69.9478618 59.79594828 64.81821961 59.10575957 59.25 58.8125 C58.29867187 58.78091797 57.34734375 58.74933594 56.3671875 58.71679688 C50.10958111 58.42106068 44.82678745 57.26470245 39 55 C37.515 54.505 37.515 54.505 36 54 C37.36494331 58.09482993 39.9590143 59.57061404 43.28515625 62.18359375 C45 64 45 64 45 68 C41.30076076 68.20551329 39.25281363 67.68248981 36 66 C35.01 66.495 35.01 66.495 34 67 C35.03712176 69.08261145 35.03712176 69.08261145 37 71 C38.175625 71.165 39.35125 71.33 40.5625 71.5 C41.696875 71.665 42.83125 71.83 44 72 C45.4375 74.0625 45.4375 74.0625 46 76 C44 78 44 78 40.375 78.125 C39.26125 78.08375 38.1475 78.0425 37 78 C38.485 78.99 38.485 78.99 40 80 C41.1875 83.125 41.1875 83.125 42 86 C41 87 41 87 38.0625 87.125 C35 87 35 87 33 86 C30.98072489 86.60578253 28.97746603 87.26919734 27 88 C27 88.33 27 88.66 27 89 C29.01822917 89.45572917 31.03645833 89.91145833 33.0546875 90.3671875 C35 91 35 91 37 93 C37 93.99 37 94.98 37 96 C33.57300397 97.33736431 31.08429414 98.00145335 27.375 97.9375 C23.56237576 98.00810415 22.85555149 98.71555881 20 101 C17.25 101.1875 17.25 101.1875 15 101 C14.67 99.68 14.34 98.36 14 97 C12.989375 97.45375 11.97875 97.9075 10.9375 98.375 C2.52271784 102.15306546 -5.09484275 102.36574302 -14.25 102.375 C-15.50941406 102.39949219 -16.76882812 102.42398438 -18.06640625 102.44921875 C-29.45913099 102.4847101 -39.69831564 100.22897262 -48.03125 91.9921875 C-52.18893785 87.54828201 -54.7771567 83.70207628 -57 78 C-58.18027946 76.22739154 -59.36136297 74.45531836 -60.54296875 72.68359375 C-64.73217405 65.55595785 -64.98687743 59.49651173 -64.75 51.375 C-64.7603125 50.12976563 -64.770625 48.88453125 -64.78125 47.6015625 C-64.61112734 34.16187269 -59.33758126 26.2617892 -50 17 C-47.75005026 14.91441347 -45.47380361 12.87856197 -43.140625 10.88671875 C-40.86347578 8.99270929 -40.86347578 8.99270929 -38.859375 6.29296875 C-34.68910859 2.9487797 -31.18086287 3.40725359 -26 3.625 C-24.66582031 3.64626953 -24.66582031 3.64626953 -23.3046875 3.66796875 C-19.10333353 3.76202891 -15.09308092 3.95967527 -11 5 C-10.814375 4.0409375 -10.814375 4.0409375 -10.625 3.0625 C-10.41875 2.381875 -10.2125 1.70125 -10 1 C-6.74696956 -0.62651522 -3.60774398 -0.11453156 0 0 Z M-47.75 37.9375 C-48.52859375 38.48277344 -49.3071875 39.02804688 -50.109375 39.58984375 C-51.91097198 40.86295728 -51.91097198 40.86295728 -53 42 C-53.80243055 48.5531828 -51.62147676 51.88411867 -48 57 C-46.02415229 60.08232242 -44.49109934 63.13891552 -43.0625 66.5 C-40.25106293 72.88386462 -36.27952157 77.76384305 -30 81 C-28.68 81 -27.36 81 -26 81 C-25.81824219 80.43410156 -25.63648437 79.86820313 -25.44921875 79.28515625 C-25.19785156 78.55167969 -24.94648437 77.81820312 -24.6875 77.0625 C-24.44386719 76.33160156 -24.20023438 75.60070312 -23.94921875 74.84765625 C-23 73 -23 73 -20 72 C-13.05240326 73.15793279 -7.47585766 78.89706922 -3.2109375 84.2421875 C-0.05173559 86.75392047 2.90391083 86.43903274 6.75 86.25 C7.44738281 86.23195312 8.14476562 86.21390625 8.86328125 86.1953125 C10.57611539 86.14838554 12.28823824 86.07664605 14 86 C12.86819855 82.60459566 11.89642801 81.84642148 9.1875 79.625 C5.12258097 76.15636605 1.69679326 73.22973844 0.0625 68 C-1.2347033 64.33730832 -3.16339509 62.49516172 -6 60 C-7.175625 58.92492187 -7.175625 58.92492187 -8.375 57.828125 C-11.76709415 54.7388964 -15.13573773 51.67643254 -18.75 48.84765625 C-21 47 -21 47 -22 45 C-22.928125 44.71125 -23.85625 44.4225 -24.8125 44.125 C-28.29699133 42.89517953 -29.50865321 41.64705596 -32 39 C-37.9588619 34.43576536 -41.50121208 33.48156902 -47.75 37.9375 Z M2 39 C3.35369129 43.16296461 5.08643889 45.38753152 8.375 48.25 C9.14585938 48.93578125 9.91671875 49.6215625 10.7109375 50.328125 C12.90828379 51.93301273 14.34398926 52.5876513 17 53 C17.33 52.34 17.66 51.68 18 51 C14.89271775 45.32583242 10.7426577 41.98237472 5 39 C4.01 39 3.02 39 2 39 Z M28 68 C27.01 68.495 27.01 68.495 26 69 C26 69.66 26 70.32 26 71 C26.99 70.67 27.98 70.34 29 70 C28.67 69.34 28.34 68.68 28 68 Z " fill="#EAEAEA" transform="translate(118,32)"/>
<path d="M0 0 C6.27 0 12.54 0 19 0 C19.33 1.32 19.66 2.64 20 4 C19.360625 4.268125 18.72125 4.53625 18.0625 4.8125 C15.66868314 5.88667752 15.66868314 5.88667752 15 9 C15.39397335 11.63804589 15.39397335 11.63804589 16 14 C12.11651516 15.29449495 9.09302664 15.13203312 5 15 C4 14 4 14 3.9375 11.4375 C3.958125 10.633125 3.97875 9.82875 4 9 C5.32 8.67 6.64 8.34 8 8 C8 7.34 8 6.68 8 6 C6.081875 6.061875 6.081875 6.061875 4.125 6.125 C1.9453125 6.1953125 1.9453125 6.1953125 0 6 C-0.66 5.34 -1.32 4.68 -2 4 C-1.34 2.68 -0.68 1.36 0 0 Z " fill="#EFF0F0" transform="translate(182,104)"/>
<path d="M0 0 C0.33 1.65 0.66 3.3 1 5 C-2.60557116 6.65629661 -5.24127431 7.21927122 -9.1953125 7.01171875 C-10.15824219 6.96466797 -11.12117188 6.91761719 -12.11328125 6.86914062 C-13.10714844 6.80919922 -14.10101563 6.74925781 -15.125 6.6875 C-16.12660156 6.63916016 -17.12820312 6.59082031 -18.16015625 6.54101562 C-25.55283569 6.14905477 -25.55283569 6.14905477 -29 5 C-29 4.01 -29 3.02 -29 2 C-20.03979507 -0.98673498 -9.36380731 -0.15434847 0 0 Z " fill="#F4F8F8" transform="translate(192,84)"/>
<path d="M0 0 C0.79792969 0.00515625 1.59585938 0.0103125 2.41796875 0.015625 C3.24683594 0.03625 4.07570312 0.056875 4.9296875 0.078125 C5.76628906 0.08328125 6.60289062 0.0884375 7.46484375 0.09375 C13.6505157 0.1739532 13.6505157 0.1739532 14.8046875 1.328125 C14.84532582 2.99429615 14.8474085 4.66200595 14.8046875 6.328125 C10.16285347 8.16492435 6.52508544 8.53095976 1.5546875 8.203125 C0.33265625 8.13867188 -0.889375 8.07421875 -2.1484375 8.0078125 C-5.1953125 7.328125 -5.1953125 7.328125 -6.6171875 5.2734375 C-6.80796875 4.63148437 -6.99875 3.98953125 -7.1953125 3.328125 C-4.88878722 0.57121313 -3.57846717 -0.04568591 0 0 Z " fill="#F4F5F5" transform="translate(168.1953125,111.671875)"/>
<path d="M0 0 C1.0209375 0.7425 1.0209375 0.7425 2.0625 1.5 C1.7325 2.82 1.4025 4.14 1.0625 5.5 C-3.04232793 6.63314263 -5.69700737 6.28328091 -9.75 5.0625 C-10.72582031 4.77503906 -11.70164063 4.48757812 -12.70703125 4.19140625 C-13.44308594 3.96324219 -14.17914063 3.73507813 -14.9375 3.5 C-14.6075 2.18 -14.2775 0.86 -13.9375 -0.5 C-9.10004898 -2.04798433 -4.57090795 -2.33408066 0 0 Z " fill="#F9F9F9" transform="translate(185.9375,37.5)"/>
<path d="M0 0 C0.66 0.33 1.32 0.66 2 1 C2.59355614 3.64860427 2.74209269 6.29197322 3 9 C-0.88348484 10.29449495 -3.90697336 10.13203312 -8 10 C-9 9 -9 9 -9.0625 6.4375 C-9.041875 5.633125 -9.02125 4.82875 -9 4 C-7.68 3.67 -6.36 3.34 -5 3 C-5 2.34 -5 1.68 -5 1 C-3.35 1.33 -1.7 1.66 0 2 C0 1.34 0 0.68 0 0 Z " fill="#EBEDEE" transform="translate(195,109)"/>
<path d="M0 0 C1.98 0.495 1.98 0.495 4 1 C3.01 1.495 3.01 1.495 2 2 C4.23761183 6.92274603 7.86741457 9.37831574 12.13671875 12.44921875 C12.75160156 12.96097656 13.36648437 13.47273438 14 14 C14 14.66 14 15.32 14 16 C12.02 16 10.04 16 8 16 C7.71125 15.360625 7.4225 14.72125 7.125 14.0625 C6.17176549 11.84793921 6.17176549 11.84793921 4 11 C4.33 12.65 4.66 14.3 5 16 C3.35 15.67 1.7 15.34 0 15 C-0.6875 12.6875 -0.6875 12.6875 -1 10 C0.4375 8.1875 0.4375 8.1875 2 7 C1.484375 6.5875 0.96875 6.175 0.4375 5.75 C-0.036875 5.1725 -0.51125 4.595 -1 4 C-0.6875 1.8125 -0.6875 1.8125 0 0 Z " fill="#E3E3E1" transform="translate(119,70)"/>
<path d="M0 0 C3.181798 1.06059933 6.0173094 2.47551369 9 4 C9 4.99 9 5.98 9 7 C6 8 6 8 3.9375 7 C3.298125 6.67 2.65875 6.34 2 6 C1.01 6.495 1.01 6.495 0 7 C0.66 8.32 1.32 9.64 2 11 C-0.97 10.505 -0.97 10.505 -4 10 C-4 10.66 -4 11.32 -4 12 C-5.32 12.33 -6.64 12.66 -8 13 C-8.33 11.68 -8.66 10.36 -9 9 C-8.38125 8.7525 -7.7625 8.505 -7.125 8.25 C-4.64931313 6.79371361 -4.04874998 5.62187494 -3 3 C-2.01 3 -1.02 3 0 3 C0 2.01 0 1.02 0 0 Z M-6 8 C-6.99 8.495 -6.99 8.495 -8 9 C-8 9.66 -8 10.32 -8 11 C-7.01 10.67 -6.02 10.34 -5 10 C-5.33 9.34 -5.66 8.68 -6 8 Z " fill="#D0D3D3" transform="translate(152,92)"/>
<path d="M0 0 C1.58294782 -0.05437607 3.16644256 -0.09296271 4.75 -0.125 C5.63171875 -0.14820313 6.5134375 -0.17140625 7.421875 -0.1953125 C10.1135858 0.00860498 11.69904974 0.63448279 14 2 C12.35 2 10.7 2 9 2 C9 2.99 9 3.98 9 5 C9.78375 5.28875 10.5675 5.5775 11.375 5.875 C14 7 14 7 16 9 C10.58461538 12.07692308 10.58461538 12.07692308 7.625 11.6875 C7.08875 11.460625 6.5525 11.23375 6 11 C6.99 10.01 7.98 9.02 9 8 C7.58480285 5.9656541 6.45017877 5.09589607 4.01953125 4.578125 C2.01823046 4.33726048 0.0090056 4.16467259 -2 4 C-1.34 2.68 -0.68 1.36 0 0 Z " fill="#EBECEB" transform="translate(164,41)"/>
<path d="M0 0 C1.65 0.33 3.3 0.66 5 1 C5 2.32 5 3.64 5 5 C4.01 5.66 3.02 6.32 2 7 C2 8.32 2 9.64 2 11 C1.25 13.6875 1.25 13.6875 0 16 C-2.125 16.8125 -2.125 16.8125 -4 17 C-4 16.01 -4 15.02 -4 14 C-3.34 14 -2.68 14 -2 14 C-2 13.34 -2 12.68 -2 12 C-2.66 11.67 -3.32 11.34 -4 11 C-3.67 9.02 -3.34 7.04 -3 5 C-2.01 5 -1.02 5 0 5 C0 3.35 0 1.7 0 0 Z " fill="#DADBDB" transform="translate(158,62)"/>
<path d="M0 0 C2 1.5 2 1.5 3 3 C2.67 3.99 2.34 4.98 2 6 C0.39773045 6.22245393 -1.20696767 6.42746669 -2.8125 6.625 C-3.70582031 6.74101563 -4.59914062 6.85703125 -5.51953125 6.9765625 C-8 7 -8 7 -11 5 C-10.625 3.0625 -10.625 3.0625 -10 1 C-6.82975235 -0.58512383 -3.45332972 -0.42372144 0 0 Z " fill="#F7F8F9" transform="translate(176,75)"/>
<path d="M0 0 C2.31 0 4.62 0 7 0 C7.66 1.32 8.32 2.64 9 4 C7 6 7 6 3.375 6.125 C2.26125 6.08375 1.1475 6.0425 0 6 C0.99 6.66 1.98 7.32 3 8 C2.67 8.99 2.34 9.98 2 11 C1.01 11.33 0.02 11.66 -1 12 C-3 10 -3 10 -3.375 7.5625 C-3 5 -3 5 -1 3.1875 C-0.34 2.795625 0.32 2.40375 1 2 C0.67 1.34 0.34 0.68 0 0 Z " fill="#E9EBEA" transform="translate(155,104)"/>
<path d="M0 0 C2.96175123 0.61277612 4.38058783 1.25372522 7 3 C7.66 3 8.32 3 9 3 C9.33 2.01 9.66 1.02 10 0 C11.65 0.33 13.3 0.66 15 1 C14.67 2.65 14.34 4.3 14 6 C10.39563687 7.24766416 7.69456616 6.75399309 4 6 C3.05125 5.814375 2.1025 5.62875 1.125 5.4375 C0.42375 5.293125 -0.2775 5.14875 -1 5 C-0.67 3.35 -0.34 1.7 0 0 Z " fill="#EBEEEF" transform="translate(187,75)"/>
<path d="M0 0 C1.43931117 0.45261358 2.87638999 0.91232979 4.3125 1.375 C5.11300781 1.63023438 5.91351563 1.88546875 6.73828125 2.1484375 C9 3 9 3 12 5 C23.13275904 6.73795649 34.76739174 6.1017037 46 6 C42.14749866 9.85250134 35.25419219 8.36991758 30.0625 8.375 C28.13954102 8.41173828 28.13954102 8.41173828 26.17773438 8.44921875 C16.26205028 8.47955741 8.76269255 6.47890534 0 2 C0 1.34 0 0.68 0 0 Z " fill="#DFE0DE" transform="translate(74,126)"/>
<path d="M0 0 C1.45792884 -0.05399736 2.91642712 -0.09279177 4.375 -0.125 C5.18710938 -0.14820313 5.99921875 -0.17140625 6.8359375 -0.1953125 C9 0 9 0 11 2 C10.625 4.625 10.625 4.625 10 7 C3.6 7.49230769 3.6 7.49230769 0.5625 5 C0.046875 4.34 -0.46875 3.68 -1 3 C-0.67 2.01 -0.34 1.02 0 0 Z " fill="#EFF1F1" transform="translate(187,61)"/>
<path d="M0 0 C1.32 0 2.64 0 4 0 C4 0.66 4 1.32 4 2 C5.45833358 3.62514468 5.45833358 3.62514468 7 5 C5 6 5 6 1 6 C0.67 8.31 0.34 10.62 0 13 C-1.32 13.33 -2.64 13.66 -4 14 C-4.33 12.35 -4.66 10.7 -5 9 C-4.34 9 -3.68 9 -3 9 C-3.33 7.35 -3.66 5.7 -4 4 C-3.01 3.67 -2.02 3.34 -1 3 C-0.67 2.01 -0.34 1.02 0 0 Z " fill="#DADCD6" transform="translate(138,115)"/>
<path d="M0 0 C-0.33 0.66 -0.66 1.32 -1 2 C-3.64 2 -6.28 2 -9 2 C-8.67 2.99 -8.34 3.98 -8 5 C-14.625 5.125 -14.625 5.125 -18 4 C-17.67 2.68 -17.34 1.36 -17 0 C-15.10507254 -0.19644384 -13.20899097 -0.38177288 -11.3125 -0.5625 C-9.72888672 -0.71912109 -9.72888672 -0.71912109 -8.11328125 -0.87890625 C-5.18573914 -0.99277552 -2.82868856 -0.70848415 0 0 Z " fill="#E5E6E5" transform="translate(183,113)"/>
<path d="M0 0 C1.46015291 0.28241641 2.91809793 0.57626614 4.375 0.875 C5.18710938 1.03742188 5.99921875 1.19984375 6.8359375 1.3671875 C9 2 9 2 11 4 C11 4.99 11 5.98 11 7 C8.1875 8.125 8.1875 8.125 5 9 C4.01 8.34 3.02 7.68 2 7 C2.33 5.68 2.66 4.36 3 3 C1.68 3.33 0.36 3.66 -1 4 C-0.67 2.68 -0.34 1.36 0 0 Z " fill="#DCDEDE" transform="translate(144,121)"/>
<path d="M0 0 C1.58357459 0.31127516 3.16684993 0.62407289 4.75 0.9375 C5.63171875 1.11152344 6.5134375 1.28554687 7.421875 1.46484375 C9.63235053 1.92368488 11.81512068 2.43336074 14 3 C11.35166292 5.64833708 9.68891639 5.44850203 6 5.75 C4.39125 5.89695312 4.39125 5.89695312 2.75 6.046875 C0 6 0 6 -2 4 C-1.34 2.68 -0.68 1.36 0 0 Z " fill="#F7FAF9" transform="translate(182,104)"/>
<path d="M0 0 C1.9375 2.125 1.9375 2.125 3 4 C2.401875 3.690625 1.80375 3.38125 1.1875 3.0625 C-2.72105553 1.16405874 -4.82679744 0.98489667 -9 2 C-8.01 3.485 -8.01 3.485 -7 5 C-7.99 5.495 -7.99 5.495 -9 6 C-10.13350534 8.01669827 -10.13350534 8.01669827 -11 10 C-12.32 10 -13.64 10 -15 10 C-15 9.34 -15 8.68 -15 8 C-14.01 8 -13.02 8 -12 8 C-11.9175 6.906875 -11.835 5.81375 -11.75 4.6875 C-11 1 -11 1 -9.375 -1.0625 C-5.71698075 -2.50645497 -3.54302138 -1.48162712 0 0 Z " fill="#D7D7D7" transform="translate(104,105)"/>
<path d="M0 0 C2.625 0.9375 2.625 0.9375 5 2 C5 2.66 5 3.32 5 4 C5.99 4.33 6.98 4.66 8 5 C4.48812804 7.40814077 2.27343092 8.36629408 -2 8 C-2 5.69 -2 3.38 -2 1 C-1.34 0.67 -0.68 0.34 0 0 Z " fill="#E3E4E2" transform="translate(150,101)"/>
<path d="M0 0 C1.67542976 0.28604898 3.34385343 0.61781233 5 1 C4.67 2.65 4.34 4.3 4 6 C3.34 5.67 2.68 5.34 2 5 C1.9175 5.598125 1.835 6.19625 1.75 6.8125 C0.79544128 9.5966296 -0.57132271 10.43311142 -3 12 C-3.66 11.67 -4.32 11.34 -5 11 C-4.34 10.01 -3.68 9.02 -3 8 C-2.34 8 -1.68 8 -1 8 C-1.020625 6.865625 -1.04125 5.73125 -1.0625 4.5625 C-1 1 -1 1 0 0 Z " fill="#EEEFEA" transform="translate(139,120)"/>
<path d="M0 0 C0.33 1.32 0.66 2.64 1 4 C1.66 4 2.32 4 3 4 C3 4.66 3 5.32 3 6 C2.01 6 1.02 6 0 6 C-0.33 6.99 -0.66 7.98 -1 9 C-1.763125 8.690625 -2.52625 8.38125 -3.3125 8.0625 C-5.18789677 7.32106407 -7.08684652 6.63771783 -9 6 C-9.33 6.66 -9.66 7.32 -10 8 C-10 7.01 -10 6.02 -10 5 C-8.02 4.67 -6.04 4.34 -4 4 C-4 3.01 -4 2.02 -4 1 C-2.68 1.33 -1.36 1.66 0 2 C0 1.34 0 0.68 0 0 Z " fill="#D4D7D4" transform="translate(163,80)"/>
<path d="M0 0 C0.763125 0.350625 1.52625 0.70125 2.3125 1.0625 C5.04759379 2.32360884 5.04759379 2.32360884 8 1 C8.66 2.32 9.32 3.64 10 5 C9 6 9 6 6.1875 6.25 C2.72285889 5.97826344 1.50584896 5.31309135 -1 3 C-0.67 2.01 -0.34 1.02 0 0 Z " fill="#DDDEDC" transform="translate(150,113)"/>
<path d="M0 0 C0 0.33 0 0.66 0 1 C-1.65 1.33 -3.3 1.66 -5 2 C-5.33 2.99 -5.66 3.98 -6 5 C-9.5625 6.1875 -9.5625 6.1875 -13 7 C-12.34 4.69 -11.68 2.38 -11 0 C-10.34 0.33 -9.68 0.66 -9 1 C-8.401875 0.67 -7.80375 0.34 -7.1875 0 C-4.40357182 -1.27265288 -2.89081739 -0.80300483 0 0 Z " fill="#E2E3E2" transform="translate(152,124)"/>
<path d="M0 0 C3.47792033 3.20334768 5.32049844 5.63329595 7 10 C7.680625 10.680625 8.36125 11.36125 9.0625 12.0625 C11.10334587 14.10334587 11.59930198 15.19511388 12 18 C5.35205259 12.96912088 2.63552637 7.9065791 0 0 Z " fill="#D6D6D6" transform="translate(60,107)"/>
<path d="M0 0 C1.32 0 2.64 0 4 0 C4.33 2.31 4.66 4.62 5 7 C3.35 7 1.7 7 0 7 C0 6.34 0 5.68 0 5 C-1.32 4.67 -2.64 4.34 -4 4 C-2.68 3.34 -1.36 2.68 0 2 C0 1.34 0 0.68 0 0 Z " fill="#E2E6E1" transform="translate(158,75)"/>
<path d="M0 0 C2.64 0 5.28 0 8 0 C8 4 8 4 6.625 5.75 C5 7 5 7 3 7 C3 6.34 3 5.68 3 5 C2.34 4.67 1.68 4.34 1 4 C0.375 1.9375 0.375 1.9375 0 0 Z M4 1 C5 3 5 3 5 3 Z " fill="#F1F1EF" transform="translate(127,120)"/>
<path d="M0 0 C2.97 0.495 2.97 0.495 6 1 C5.67 2.65 5.34 4.3 5 6 C4.01 6.33 3.02 6.66 2 7 C1.34 6.67 0.68 6.34 0 6 C0 4.02 0 2.04 0 0 Z " fill="#F3F6F5" transform="translate(187,51)"/>
<path d="M0 0 C1.65 0.33 3.3 0.66 5 1 C4.67 2.65 4.34 4.3 4 6 C2.125 6.625 2.125 6.625 0 7 C-0.66 6.34 -1.32 5.68 -2 5 C-1.34 3.35 -0.68 1.7 0 0 Z " fill="#EEF3F2" transform="translate(188,84)"/>
<path d="M0 0 C0.99 0.33 1.98 0.66 3 1 C2.67 2.65 2.34 4.3 2 6 C0.35 6.33 -1.3 6.66 -3 7 C-3.33 5.68 -3.66 4.36 -4 3 C-2.1875 1.4375 -2.1875 1.4375 0 0 Z " fill="#E9EBEA" transform="translate(181,51)"/>
<path d="M0 0 C1.32 0.66 2.64 1.32 4 2 C4 3.32 4 4.64 4 6 C0.25 7.125 0.25 7.125 -2 6 C-1.125 1.125 -1.125 1.125 0 0 Z " fill="#EAEBEF" transform="translate(159,122)"/>
<path d="M0 0 C5.99932374 1.8331267 11.44920563 4.07321751 17 7 C15 8 15 8 12.5390625 7.29296875 C11.57742187 6.92816406 10.61578125 6.56335938 9.625 6.1875 C8.66851562 5.83042969 7.71203125 5.47335938 6.7265625 5.10546875 C4.4142602 4.16795937 2.20868602 3.15668154 0 2 C0 1.34 0 0.68 0 0 Z " fill="#CCCCCA" transform="translate(74,126)"/>
<path d="M0 0 C0.66 0.33 1.32 0.66 2 1 C2.625 4.0625 2.625 4.0625 3 7 C2.01 7.33 1.02 7.66 0 8 C-0.33 7.01 -0.66 6.02 -1 5 C-1.99 4.67 -2.98 4.34 -4 4 C-4 3.01 -4 2.02 -4 1 C-2.68 1.33 -1.36 1.66 0 2 C0 1.34 0 0.68 0 0 Z " fill="#D2D8D7" transform="translate(195,109)"/>
<path d="M0 0 C1.65 0 3.3 0 5 0 C5.66 1.32 6.32 2.64 7 4 C5.35 4.66 3.7 5.32 2 6 C0 3 0 3 0 0 Z " fill="#F7F7F7" transform="translate(137,32)"/>
<path d="M0 0 C4.75 0.875 4.75 0.875 7 2 C6.67 2.99 6.34 3.98 6 5 C3.36 4.67 0.72 4.34 -2 4 C-1.34 2.68 -0.68 1.36 0 0 Z " fill="#F4F4F4" transform="translate(164,41)"/>
<path d="M0 0 C1.46015291 0.28241641 2.91809793 0.57626614 4.375 0.875 C5.18710938 1.03742188 5.99921875 1.19984375 6.8359375 1.3671875 C9 2 9 2 11 4 C11 4.99 11 5.98 11 7 C10.34 7 9.68 7 9 7 C8.67 6.01 8.34 5.02 8 4 C4.62182575 3.15545644 2.32534757 2.89155081 -1 4 C-0.67 2.68 -0.34 1.36 0 0 Z " fill="#D4D8D8" transform="translate(144,121)"/>
<path d="M0 0 C2.31 0 4.62 0 7 0 C7.66 1.32 8.32 2.64 9 4 C8.34 4.66 7.68 5.32 7 6 C5.68 6 4.36 6 3 6 C3.66 4.68 4.32 3.36 5 2 C3.35 1.67 1.7 1.34 0 1 C0 0.67 0 0.34 0 0 Z " fill="#F1F3F4" transform="translate(155,104)"/>
<path d="M0 0 C0.66 0.33 1.32 0.66 2 1 C2 2.65 2 4.3 2 6 C0.68 6.33 -0.64 6.66 -2 7 C-2.33 5.35 -2.66 3.7 -3 2 C-2.01 1.34 -1.02 0.68 0 0 Z " fill="#CCCFCD" transform="translate(136,122)"/>
<path d="M0 0 C0.66 0.33 1.32 0.66 2 1 C1.67 2.65 1.34 4.3 1 6 C0.01 6.33 -0.98 6.66 -2 7 C-2.99 5.68 -3.98 4.36 -5 3 C-2.625 1.4375 -2.625 1.4375 0 0 Z " fill="#F9F9F9" transform="translate(117,32)"/>
<path d="M0 0 C2.475 0.495 2.475 0.495 5 1 C5.33 2.65 5.66 4.3 6 6 C4.35 5.67 2.7 5.34 1 5 C0.67 3.35 0.34 1.7 0 0 Z " fill="#D2D4CF" transform="translate(118,80)"/>
<path d="M0 0 C1.98 0.495 1.98 0.495 4 1 C3.67 2.65 3.34 4.3 3 6 C1.68 5.67 0.36 5.34 -1 5 C-0.67 3.35 -0.34 1.7 0 0 Z " fill="#F5F8F8" transform="translate(187,75)"/>
<path d="M0 0 C2.475 0.495 2.475 0.495 5 1 C5 2.32 5 3.64 5 5 C3.68 5 2.36 5 1 5 C0.67 3.35 0.34 1.7 0 0 Z " fill="#C3C5BF" transform="translate(158,62)"/>
<path d="M0 0 C0.99 0.495 0.99 0.495 2 1 C2 1.66 2 2.32 2 3 C3.32 2.67 4.64 2.34 6 2 C5.6875 3.9375 5.6875 3.9375 5 6 C4.01 6.33 3.02 6.66 2 7 C0 5 0 5 -0.125 2.375 C-0.08375 1.59125 -0.0425 0.8075 0 0 Z " fill="#EFF1EF" transform="translate(152,109)"/>
<path d="M0 0 C2.33944736 0.28730055 4.6739143 0.61936779 7 1 C6 3 6 3 2.9375 4.125 C1.4834375 4.558125 1.4834375 4.558125 0 5 C-0.5625 3.0625 -0.5625 3.0625 -1 1 C-0.67 0.67 -0.34 0.34 0 0 Z " fill="#E9ECEB" transform="translate(166,76)"/>
<path d="M0 0 C3.16115776 1.36983503 3.9927092 1.9890638 6 5 C5.02149805 6.02104551 4.02019573 7.0206121 3 8 C2.67 8 2.34 8 2 8 C1.34 5.36 0.68 2.72 0 0 Z " fill="#F0F1F3" transform="translate(168,59)"/>
<path d="M0 0 C0.66 0.33 1.32 0.66 2 1 C2 1.99 2 2.98 2 4 C2.66 4.66 3.32 5.32 4 6 C3.01 7.485 3.01 7.485 2 9 C1.01 8.67 0.02 8.34 -1 8 C-0.34 7.34 0.32 6.68 1 6 C0.01 4.35 -0.98 2.7 -2 1 C-1.34 0.67 -0.68 0.34 0 0 Z " fill="#D6D7D8" transform="translate(165,53)"/>
<path d="M0 0 C3 1 3 1 4 3 C3.01 4.485 3.01 4.485 2 6 C-0.475 5.01 -0.475 5.01 -3 4 C-2.01 3.67 -1.02 3.34 0 3 C0 2.01 0 1.02 0 0 Z " fill="#D6DADA" transform="translate(152,92)"/>
<path d="M0 0 C3.79588866 0.54226981 5.47211993 2.20127563 8 5 C7.01 5.495 7.01 5.495 6 6 C3.96166576 4.7260411 1.96147874 3.38938077 0 2 C0 1.34 0 0.68 0 0 Z " fill="#E2E2E2" transform="translate(100,81)"/>
<path d="M0 0 C3.95820859 0.56545837 6.6659053 1.80902348 10 4 C9.67 4.99 9.34 5.98 9 7 C7.4972763 6.02501855 5.99788037 5.04490611 4.5 4.0625 C3.6646875 3.51722656 2.829375 2.97195312 1.96875 2.41015625 C1.3190625 1.94480469 0.669375 1.47945313 0 1 C0 0.67 0 0.34 0 0 Z " fill="#DEDEDD" transform="translate(123,71)"/>
<path d="M0 0 C2.09749995 2.35968744 2.96905704 3.54616994 3.1875 6.75 C3.125625 7.4925 3.06375 8.235 3 9 C2.67 8.34 2.34 7.68 2 7 C1.34 7 0.68 7 0 7 C-0.38133299 5.0085944 -0.71325582 3.00720923 -1 1 C-0.67 0.67 -0.34 0.34 0 0 Z " fill="#F6F6F6" transform="translate(122,42)"/>
<path d="M0 0 C3.3 0.33 6.6 0.66 10 1 C10 1.33 10 1.66 10 2 C8.35 2 6.7 2 5 2 C5 2.66 5 3.32 5 4 C4.34 4 3.68 4 3 4 C3 3.34 3 2.68 3 2 C2.01 1.67 1.02 1.34 0 1 C0 0.67 0 0.34 0 0 Z " fill="#E3E3E3" transform="translate(168,41)"/>
<path d="M0 0 C0.99 0.66 1.98 1.32 3 2 C2.67 2.99 2.34 3.98 2 5 C0.35 4.67 -1.3 4.34 -3 4 C-2.01 2.68 -1.02 1.36 0 0 Z " fill="#E6E7E5" transform="translate(157,114)"/>
<path d="M0 0 C0.66 1.32 1.32 2.64 2 4 C0.35 5.32 -1.3 6.64 -3 8 C-3.66 7.67 -4.32 7.34 -5 7 C-4.0409375 6.1028125 -4.0409375 6.1028125 -3.0625 5.1875 C-0.79689611 3.09189663 -0.79689611 3.09189663 0 0 Z " fill="#F4F6F5" transform="translate(139,124)"/>
<path d="M0 0 C1.98 0.495 1.98 0.495 4 1 C3.01 1.495 3.01 1.495 2 2 C2.33 3.65 2.66 5.3 3 7 C1.68 6.01 0.36 5.02 -1 4 C-0.67 2.68 -0.34 1.36 0 0 Z " fill="#D6D6D1" transform="translate(119,70)"/>
<path d="M0 0 C1.32 0 2.64 0 4 0 C3.67 1.65 3.34 3.3 3 5 C2.01 4.34 1.02 3.68 0 3 C0 2.01 0 1.02 0 0 Z " fill="#F2F2F2" transform="translate(182,38)"/>
<path d="" fill="#FFFFFF" transform="translate(0,0)"/>
</svg>
